<svg xmlns="http://www.w3.org/2000/svg" width="180" height="180" viewBox="0 0 180 180"><defs>
<radialGradient id="fur" cx="35%" cy="25%" r="75%"><stop stop-color="#fffef1"/><stop offset=".48" stop-color="#ffe6b5"/><stop offset=".86" stop-color="#d99563"/><stop offset="1" stop-color="#965565"/></radialGradient>
<radialGradient id="white" cx="32%" cy="22%" r="85%"><stop stop-color="#fffdf4"/><stop offset=".65" stop-color="#f3e5d5"/><stop offset="1" stop-color="#cfa9a0"/></radialGradient>
<radialGradient id="gold" cx="30%" cy="22%"><stop stop-color="#fffccc"/><stop offset=".45" stop-color="#ffe269"/><stop offset="1" stop-color="#d98933"/></radialGradient>
<radialGradient id="silver" cx="28%" cy="18%"><stop stop-color="#fff"/><stop offset=".53" stop-color="#c5e8f0"/><stop offset="1" stop-color="#7293ba"/></radialGradient>
<radialGradient id="shadow" cx="40%" cy="20%"><stop stop-color="#895576"/><stop offset="1" stop-color="#271d40"/></radialGradient>
<linearGradient id="ear" x2=".2" y2="1"><stop stop-color="#ffaeb7"/><stop offset=".55" stop-color="#f57d9e"/><stop offset="1" stop-color="#b9698b"/></linearGradient>
<linearGradient id="sky" x2=".12" y2="1"><stop stop-color="var(--a)"/><stop offset=".53" stop-color="var(--b)"/><stop offset="1" stop-color="var(--c)"/></linearGradient>
<radialGradient id="glow"><stop stop-color="#fff9dc" stop-opacity=".7"/><stop offset="1" stop-color="#fff9dc" stop-opacity="0"/></radialGradient>
<linearGradient id="lip" y2="1"><stop stop-color="#ffccd0"/><stop offset="1" stop-color="#db6c8c"/></linearGradient>
<filter id="soft"><feGaussianBlur stdDeviation="5"/></filter>
<filter id="drop" x="-30%" y="-30%" width="160%" height="170%"><feDropShadow dx="0" dy="5" stdDeviation="5" flood-color="#26102a" flood-opacity=".42"/></filter>
</defs><g filter="url(#drop)"><path d="M45 133q42 20 91 0" fill="none" stroke="#d8b5fb" stroke-width="10"/><path d="M90 139L94.25 151.75 107 156 94.25 160.25 90 173 85.75 160.25 73 156 85.75 151.75Z" fill="#fff1ad" stroke="#fff" stroke-width="1.6"/><path d="M65 143L66.25 146.75 70 148 66.25 149.25 65 153 63.75 149.25 60 148 63.75 146.75Z" fill="#fff0a8" stroke="#fff" stroke-width="1.6"/><path d="M116 143L117.25 146.75 121 148 117.25 149.25 116 153 114.75 149.25 111 148 114.75 146.75Z" fill="#fff0a8" stroke="#fff" stroke-width="1.6"/></g></svg>