<svg xmlns="http://www.w3.org/2000/svg" width="180" height="180" viewBox="0 0 180 180"><defs>
<radialGradient id="fur" cx="35%" cy="25%" r="75%"><stop stop-color="#fffef1"/><stop offset=".48" stop-color="#ffe6b5"/><stop offset=".86" stop-color="#d99563"/><stop offset="1" stop-color="#965565"/></radialGradient>
<radialGradient id="white" cx="32%" cy="22%" r="85%"><stop stop-color="#fffdf4"/><stop offset=".65" stop-color="#f3e5d5"/><stop offset="1" stop-color="#cfa9a0"/></radialGradient>
<radialGradient id="gold" cx="30%" cy="22%"><stop stop-color="#fffccc"/><stop offset=".45" stop-color="#ffe269"/><stop offset="1" stop-color="#d98933"/></radialGradient>
<radialGradient id="silver" cx="28%" cy="18%"><stop stop-color="#fff"/><stop offset=".53" stop-color="#c5e8f0"/><stop offset="1" stop-color="#7293ba"/></radialGradient>
<radialGradient id="shadow" cx="40%" cy="20%"><stop stop-color="#895576"/><stop offset="1" stop-color="#271d40"/></radialGradient>
<linearGradient id="ear" x2=".2" y2="1"><stop stop-color="#ffaeb7"/><stop offset=".55" stop-color="#f57d9e"/><stop offset="1" stop-color="#b9698b"/></linearGradient>
<linearGradient id="sky" x2=".12" y2="1"><stop stop-color="var(--a)"/><stop offset=".53" stop-color="var(--b)"/><stop offset="1" stop-color="var(--c)"/></linearGradient>
<radialGradient id="glow"><stop stop-color="#fff9dc" stop-opacity=".7"/><stop offset="1" stop-color="#fff9dc" stop-opacity="0"/></radialGradient>
<linearGradient id="lip" y2="1"><stop stop-color="#ffccd0"/><stop offset="1" stop-color="#db6c8c"/></linearGradient>
<filter id="soft"><feGaussianBlur stdDeviation="5"/></filter>
<filter id="drop" x="-30%" y="-30%" width="160%" height="170%"><feDropShadow dx="0" dy="5" stdDeviation="5" flood-color="#26102a" flood-opacity=".42"/></filter>
</defs><defs>
<radialGradient id="ch-bunny" cx="29%" cy="18%" r="82%"><stop stop-color="#fff"/><stop offset=".53" stop-color="#fff9ed"/><stop offset=".83" stop-color="#e7d8da"/><stop offset="1" stop-color="#b99ba8"/></radialGradient>
<radialGradient id="ch-gold" cx="27%" cy="17%" r="84%"><stop stop-color="#fffef0"/><stop offset=".27" stop-color="#fff2a2"/><stop offset=".58" stop-color="#f8cc50"/><stop offset=".86" stop-color="#d89534"/><stop offset="1" stop-color="#9e6450"/></radialGradient>
<radialGradient id="ch-silver" cx="29%" cy="17%" r="85%"><stop stop-color="#fff"/><stop offset=".3" stop-color="#efffff"/><stop offset=".62" stop-color="#c3dae7"/><stop offset=".9" stop-color="#829cb9"/><stop offset="1" stop-color="#5e6b91"/></radialGradient>
<radialGradient id="ch-straw" cx="26%" cy="20%" r="80%"><stop stop-color="#fff1c8"/><stop offset=".48" stop-color="#d9af73"/><stop offset=".84" stop-color="#b27e58"/><stop offset="1" stop-color="#79546a"/></radialGradient>
<radialGradient id="ch-steel" cx="25%" cy="15%" r="90%"><stop stop-color="#d5e5e5"/><stop offset=".25" stop-color="#86989f"/><stop offset=".6" stop-color="#526476"/><stop offset="1" stop-color="#303848"/></radialGradient>
<linearGradient id="ch-ear" x1=".15" y1="0" x2=".7" y2="1"><stop stop-color="#ffe6df"/><stop offset=".55" stop-color="#f5a6af"/><stop offset="1" stop-color="#b76f91"/></linearGradient>
<radialGradient id="ch-dog" cx="34%" cy="21%" r="77%"><stop stop-color="#fff2cc"/><stop offset=".33" stop-color="#f9cf8a"/><stop offset=".72" stop-color="#e9a65c"/><stop offset="1" stop-color="#ad6557"/></radialGradient>
<radialGradient id="ch-cream" cx="34%" cy="17%" r="84%"><stop stop-color="#fffef5"/><stop offset=".67" stop-color="#fff0d1"/><stop offset="1" stop-color="#e3b990"/></radialGradient>
<linearGradient id="ch-cape" x1="0" y1="0" x2=".88" y2="1"><stop stop-color="#ec91ac"/><stop offset=".46" stop-color="#ad537c"/><stop offset="1" stop-color="#603551"/></linearGradient>
<linearGradient id="ch-metal" x1="0" y1="0" x2=".7" y2="1"><stop stop-color="#fff9c6"/><stop offset=".4" stop-color="#f2cc6d"/><stop offset=".77" stop-color="#c68740"/><stop offset="1" stop-color="#86506a"/></linearGradient>
<radialGradient id="ch-jewel" cx="29%" cy="18%" r="79%"><stop stop-color="#fff"/><stop offset=".24" stop-color="#acefff"/><stop offset=".65" stop-color="#56a6c5"/><stop offset="1" stop-color="#375178"/></radialGradient>
<pattern id="ch-woven" width="9" height="9" patternUnits="userSpaceOnUse"><path d="M0 2h9M2 0v9" stroke="#784e4d" stroke-opacity=".28" stroke-width="1.3"/></pattern>
</defs><g filter="url(#drop)"><g transform="translate(58 80) rotate(-13)"><path d="M-13 3Q-24-21-16-63Q-12-77-4-73Q13-70 17-24L15 5Z" fill="url(#ch-gold)" stroke="#5a3a55" stroke-width="3.1" stroke-linejoin="round" stroke-linecap="round"/><path d="M-7-8Q-15-28-10-61Q-6-68-1-61Q8-48 9-13Z" fill="url(#ch-ear)" stroke="#d38c9b" stroke-width="1.6"/><path d="M-14-27Q-15-51-10-60" fill="none" stroke="#fff9e8" stroke-opacity=".85" stroke-width="2.5" stroke-linecap="round"/></g><g transform="translate(122 80) rotate(13)"><path d="M-13 3Q-24-21-16-63Q-12-77-4-73Q13-70 17-24L15 5Z" fill="url(#ch-gold)" stroke="#5a3a55" stroke-width="3.1" stroke-linejoin="round" stroke-linecap="round"/><path d="M-7-8Q-15-28-10-61Q-6-68-1-61Q8-48 9-13Z" fill="url(#ch-ear)" stroke="#d38c9b" stroke-width="1.6"/><path d="M-14-27Q-15-51-10-60" fill="none" stroke="#fff9e8" stroke-opacity=".85" stroke-width="2.5" stroke-linecap="round"/></g><path d="M40 139q7-31 50-34 44 2 50 34l10 25Q90 190 30 164Z" fill="url(#ch-gold)" stroke="#5a3a55" stroke-width="3.1" stroke-linejoin="round" stroke-linecap="round"/><path d="M60 125q-6 19 3 33m58-33q5 20-4 34" fill="none" stroke="#fff9e8" stroke-opacity=".62" stroke-width="3" stroke-linecap="round"/><path d="M63 140q27 17 55 0" fill="none" stroke="#fffaf2" stroke-width="4" opacity=".85"/><path d="M33 96q-3-47 49-54 51-9 65 37 13 51-30 63-38 12-68-10Q34 118 33 96Z" fill="url(#ch-gold)" stroke="#5a3a55" stroke-width="3.1" stroke-linejoin="round" stroke-linecap="round"/><path d="M42 81q9-29 38-32" fill="none" stroke="#fff" stroke-opacity=".74" stroke-width="4" stroke-linecap="round"/><path d="M56 72l-6-10 15 2-2-11 15 7" fill="url(#ch-gold)" stroke="#d8b5b3" stroke-width="1.5" stroke-linejoin="round"/><path d="M151 54L153.25 60.75 160 63 153.25 65.25 151 72 148.75 65.25 142 63 148.75 60.75Z" fill="#fff7c4" stroke="#fff" stroke-width="1.6"/><path d="M23 87L24.5 91.5 29 93 24.5 94.5 23 99 21.5 94.5 17 93 21.5 91.5Z" fill="#fff7c4" stroke="#fff" stroke-width="1.6"/><path d="M50 82q10-26 33-28m24 66q18-4 22-23" fill="none" stroke="#fffde4" stroke-opacity=".85" stroke-width="3" stroke-linecap="round"/><g transform="translate(0 -16)"><ellipse cx="90" cy="114" rx="27" ry="21" fill="#fffaf4" opacity=".91"/><path d="M83 115q7-6 14 0l-7 7z" fill="#ce8390" stroke="#5a3a55" stroke-width="1.5"/><path d="M90 122v7m0 0q-8 8-16 0m16 0q8 8 16 0" fill="none" stroke="#5a3a55" stroke-width="2.5" stroke-linecap="round"/><ellipse cx="69" cy="96" rx="6.7" ry="9" fill="#3a2b43"/><ellipse cx="111" cy="96" rx="6.7" ry="9" fill="#3a2b43"/><circle cx="67" cy="92" r="2.7" fill="white"/><circle cx="109" cy="92" r="2.7" fill="white"/><circle cx="72" cy="100" r="1.2" fill="#bac8e8"/><circle cx="114" cy="100" r="1.2" fill="#bac8e8"/><ellipse cx="54" cy="112" rx="9" ry="4" fill="#f2a0ab" opacity=".6"/><ellipse cx="126" cy="112" rx="9" ry="4" fill="#f2a0ab" opacity=".6"/></g><path d="M36 149q8-11 28-9 16 2 16 15 1 10-21 10-27 0-23-16Zm108 0q-8-11-28-9-16 2-16 15-1 10 21 10 27 0 23-16Z" fill="url(#ch-gold)" stroke="#5a3a55" stroke-width="3.1" stroke-linejoin="round" stroke-linecap="round"/><path d="M47 152q10-4 20 0m46 0q10-4 20 0" fill="none" stroke="#fff" opacity=".7" stroke-width="2.5"/></g></svg>