<svg xmlns="http://www.w3.org/2000/svg" width="180" height="180" viewBox="0 0 180 180"><defs>
<radialGradient id="fur" cx="35%" cy="25%" r="75%"><stop stop-color="#fffef1"/><stop offset=".48" stop-color="#ffe6b5"/><stop offset=".86" stop-color="#d99563"/><stop offset="1" stop-color="#965565"/></radialGradient>
<radialGradient id="white" cx="32%" cy="22%" r="85%"><stop stop-color="#fffdf4"/><stop offset=".65" stop-color="#f3e5d5"/><stop offset="1" stop-color="#cfa9a0"/></radialGradient>
<radialGradient id="gold" cx="30%" cy="22%"><stop stop-color="#fffccc"/><stop offset=".45" stop-color="#ffe269"/><stop offset="1" stop-color="#d98933"/></radialGradient>
<radialGradient id="silver" cx="28%" cy="18%"><stop stop-color="#fff"/><stop offset=".53" stop-color="#c5e8f0"/><stop offset="1" stop-color="#7293ba"/></radialGradient>
<radialGradient id="shadow" cx="40%" cy="20%"><stop stop-color="#895576"/><stop offset="1" stop-color="#271d40"/></radialGradient>
<linearGradient id="ear" x2=".2" y2="1"><stop stop-color="#ffaeb7"/><stop offset=".55" stop-color="#f57d9e"/><stop offset="1" stop-color="#b9698b"/></linearGradient>
<linearGradient id="sky" x2=".12" y2="1"><stop stop-color="var(--a)"/><stop offset=".53" stop-color="var(--b)"/><stop offset="1" stop-color="var(--c)"/></linearGradient>
<radialGradient id="glow"><stop stop-color="#fff9dc" stop-opacity=".7"/><stop offset="1" stop-color="#fff9dc" stop-opacity="0"/></radialGradient>
<linearGradient id="lip" y2="1"><stop stop-color="#ffccd0"/><stop offset="1" stop-color="#db6c8c"/></linearGradient>
<filter id="soft"><feGaussianBlur stdDeviation="5"/></filter>
<filter id="drop" x="-30%" y="-30%" width="160%" height="170%"><feDropShadow dx="0" dy="5" stdDeviation="5" flood-color="#26102a" flood-opacity=".42"/></filter>
</defs><defs>
<linearGradient id="bd-turf" x1=".15" y1="0" x2=".8" y2="1"><stop stop-color="#e0ed9e"/><stop offset=".32" stop-color="#92c778"/><stop offset=".78" stop-color="#59936b"/><stop offset="1" stop-color="#385d61"/></linearGradient>
<linearGradient id="bd-earth" x1=".1" y1="0" x2=".8" y2="1"><stop stop-color="#b39076"/><stop offset=".48" stop-color="#826755"/><stop offset="1" stop-color="#513e50"/></linearGradient>
<radialGradient id="bd-burrow" cx=".45" cy=".9" r=".84"><stop stop-color="#423149"/><stop offset=".52" stop-color="#292638"/><stop offset="1" stop-color="#111b2c"/></radialGradient>
<radialGradient id="bd-contact"><stop stop-color="#1a1933" stop-opacity=".48"/><stop offset="1" stop-color="#1a1933" stop-opacity="0"/></radialGradient>
</defs>
<path d="M17 89C33 105 59 112 90 112s57-7 73-23l9 12c-12 32-43 43-82 43S19 133 8 101Z" fill="url(#bd-earth)" stroke="#5a3a55" stroke-width="3.5" stroke-linejoin="round"/>
<path d="M16 89C30 102 56 112 90 112s61-10 74-23l6 11c-15 25-44 35-80 35s-66-10-80-35Z" fill="url(#bd-turf)" stroke="#5a3a55" stroke-width="3" stroke-linejoin="round"/>
<path d="M24 97C43 109 68 116 90 116c29 0 56-8 67-19" fill="none" stroke="#eff5af" stroke-width="4" opacity=".85" stroke-linecap="round"/>
<path d="M40 126q41 16 90 1" fill="none" stroke="#3b5f5d" opacity=".5" stroke-width="2.5" stroke-linecap="round"/>
<path d="M21.05 109q2.55 -4.25 4.25 -8.5l1.7 6.8q1.7 -10.2 5.95 -12.75l-1.7 11.9q3.4 -5.1 6.8 -5.95l-3.4 8.5" fill="none" stroke="#c6df8b" stroke-width="1.7" stroke-linecap="round" stroke-linejoin="round"/><path d="M56.4 126q2.4000000000000004 -4 4 -8l1.6 6.4q1.6 -9.600000000000001 5.6000000000000005 -12l-1.6 11.200000000000001q3.2 -4.800000000000001 6.4 -5.6000000000000005l-3.2 8" fill="none" stroke="#c6df8b" stroke-width="1.6" stroke-linecap="round" stroke-linejoin="round"/><path d="M130.4 121q2.4000000000000004 -4 4 -8l1.6 6.4q1.6 -9.600000000000001 5.6000000000000005 -12l-1.6 11.200000000000001q3.2 -4.800000000000001 6.4 -5.6000000000000005l-3.2 8" fill="none" stroke="#c6df8b" stroke-width="1.6" stroke-linecap="round" stroke-linejoin="round"/><path d="M152.1 103q2.0999999999999996 -3.5 3.5 -7l1.4 5.6q1.4 -8.399999999999999 4.8999999999999995 -10.5l-1.4 9.799999999999999q2.8 -4.199999999999999 5.6 -4.8999999999999995l-2.8 7" fill="none" stroke="#c6df8b" stroke-width="1.4" stroke-linecap="round" stroke-linejoin="round"/>
<ellipse cx="51" cy="135" rx="4.8" ry="2.6" fill="#d9c8a8" stroke="#725865" stroke-width="1.4"/>
<ellipse cx="119" cy="137" rx="3.8" ry="2" fill="#d9c8a8" stroke="#725865" stroke-width="1.3"/></svg>